<?xml version="1.0" encoding="UTF-8"?>
<svg width="30px" height="29px" viewBox="0 0 30 29" version="1.1" xmlns="http://www.w3.org/2000/svg" xmlns:xlink="http://www.w3.org/1999/xlink">
    <title>预警</title>
    <g id="页面-1" stroke="none" stroke-width="1" fill="none" fill-rule="evenodd">
        <g id="1.监测预警" transform="translate(-55.000000, -154.000000)" fill="#56E9FF" fill-rule="nonzero">
            <g id="编组-3" transform="translate(12.000000, 91.000000)">
                <g id="编组-15" transform="translate(19.000000, 49.000000)">
                    <g id="编组-9" transform="translate(24.596060, 13.700000)">
                        <g id="预警" transform="translate(0.000000, 1.000000)">
                            <path d="M4.94229375,25.4471344 L4.94229375,16.5523219 C4.94229375,11.2316344 9.25678125,6.91635938 14.5828125,6.91635938 C19.9088437,6.91635938 24.2233594,11.2316625 24.2233594,16.5523219 L24.2233594,25.4471344 L27.5143219,25.4471344 C28.1977594,25.4471344 28.7518219,26.0011969 28.7518219,26.6846344 C28.7518219,27.3680719 28.1977594,27.9221344 27.5143219,27.9221344 L1.25850937,27.9221344 C0.57504375,27.9221344 0.021009375,27.3680719 0.021009375,26.6846344 C0.021009375,26.0011969 0.57504375,25.4471344 1.25850937,25.4471344 L4.94232187,25.4471344 L4.94229375,25.4471344 Z M15.2807063,10.7995219 L10.5254156,18.6280875 L14.3285063,18.6280875 L13.3763344,24.4995188 L18.131625,16.6709531 L14.3284781,16.6709531 L15.2806781,10.7995219 L15.2807063,10.7995219 L15.2807063,10.7995219 Z" id="形状"></path>
                            <path d="M2.0151,7.72686562 L2.0179125,7.72970625 L4.97899688,9.44679375 L4.04659688,11.0678625 L1.08548438,9.34790625 C0.639084375,9.09092812 0.486478125,8.5176 0.743625,8.07139687 C0.997903125,7.62519375 1.56864375,7.46985937 2.0151,7.72686562 Z M28.4191594,8.06577188 C28.4191594,8.06858438 28.4219719,8.06858438 28.4219719,8.07139688 C28.6791469,8.51762813 28.5265406,9.09095625 28.0801406,9.35074688 L25.119,11.0650219 L24.1866,9.44398125 L27.1476844,7.72686563 C27.5913,7.4698875 28.1620125,7.62238125 28.4191594,8.06577188 Z M22.5676125,2.20002188 L22.5732375,2.20002188 C23.0197219,2.4598125 23.1722719,3.03314063 22.915125,3.47937188 L21.2057438,6.45038438 L19.5895688,5.51556563 L21.2990063,2.54455313 C21.5532563,2.09835 22.1239969,1.94585625 22.5676125,2.20002188 Z M7.86389062,2.53892812 C7.86389062,2.53892812 7.86389062,2.54174062 7.86670312,2.54174062 L9.57614062,5.51275312 L7.9599375,6.44754375 L6.2505,3.47653125 C5.9934375,3.0303 6.1459875,2.4598125 6.5923875,2.20002187 C7.03603125,1.94301562 7.60674375,2.09550937 7.86389062,2.53892812 Z M14.58,-3.50830476e-14 C15.1394625,-3.50830476e-14 15.5915437,0.42080625 15.5915437,0.943284375 L15.5915437,4.30965 L13.5684844,4.30965 L13.5684844,0.940471875 C13.5684562,0.420834375 14.0205375,-3.50830476e-14 14.58,-3.50830476e-14 Z" id="形状结合"></path>
                        </g>
                    </g>
                </g>
            </g>
        </g>
    </g>
</svg>